<svg width="21" height="21" viewBox="0 0 21 21" fill="none" xmlns="http://www.w3.org/2000/svg">
<path d="M20.8399 6.01427L14.9315 0.158697C14.7182 -0.052899 14.3719 -0.052899 14.1586 0.158697L14.1336 0.183508C13.7713 0.542452 13.5716 1.01992 13.5716 1.52763C13.5716 1.85472 13.6555 2.16859 13.8113 2.44693L7.62916 7.70519C7.15602 7.28612 6.55212 7.05675 5.91249 7.05675C5.22322 7.05675 4.57527 7.32274 4.08802 7.80574L4.05096 7.84247C3.83746 8.05395 3.83746 8.39697 4.05096 8.60846L7.59057 12.1164L4.14323 15.5328C4.07425 15.6032 2.44252 17.2696 1.36975 18.5957C0.348142 19.8583 0.146116 20.0896 0.135621 20.1015C-0.0540514 20.3156 -0.0435566 20.6385 0.159453 20.8406C0.265823 20.9465 0.406082 21 0.546778 21C0.675012 21 0.803574 20.9556 0.906992 20.866C0.916066 20.8582 1.14411 20.6617 2.42634 19.6429C3.76421 18.5797 5.44568 16.9624 5.5221 16.8887L8.96386 13.4777L12.3139 16.7978C12.4206 16.9036 12.5605 16.9565 12.7004 16.9565C12.8402 16.9565 12.9802 16.9036 13.0868 16.7978L13.1239 16.761C13.6112 16.2781 13.8796 15.6359 13.8796 14.9529C13.8796 14.319 13.6481 13.7205 13.2253 13.2515L18.531 7.12469C18.8119 7.27908 19.1286 7.36218 19.4586 7.36218C19.971 7.36218 20.4527 7.16445 20.8148 6.80529L20.8399 6.78048C21.0534 6.56877 21.0534 6.22575 20.8399 6.01427Z" fill="#DB6E34"/>
</svg>
