<svg width="13" height="8" viewBox="0 0 13 8" fill="none" xmlns="http://www.w3.org/2000/svg">
<path d="M0.445068 7.75H1.91982L3.05424 5.73239C3.29144 5.2993 3.4977 4.84507 3.4977 4.84507H3.51832C3.51832 4.84507 3.73489 5.2993 3.97209 5.73239L5.11683 7.75H6.60189L4.32273 3.94718L6.51939 0.25H5.00338L3.9824 2.08803C3.73489 2.53169 3.52864 3.00704 3.52864 3.00704H3.50801C3.50801 3.00704 3.28113 2.52113 3.05424 2.08803L2.04357 0.25H0.527572L2.71391 3.94718L0.445068 7.75Z" fill="white"/>
<path d="M9.19116 7.75H10.5112V4.61268L12.9451 0.25H11.4394L10.305 2.45775C10.0781 2.92254 9.8615 3.46127 9.8615 3.46127H9.84088C9.84088 3.46127 9.6243 2.92254 9.39742 2.45775L8.25268 0.25H6.747L9.19116 4.61268V7.75Z" fill="white"/>
</svg>
