<svg width="16" height="16" viewBox="0 0 16 16" fill="none" xmlns="http://www.w3.org/2000/svg">
<path d="M3.73389 12.6875C3.73389 12.6875 5.92139 11.75 6.54639 11.125C7.17139 10.5 5.29639 10.5 5.29639 7.375C5.29639 4.25 7.79639 4.25 7.79639 4.25C7.79639 4.25 10.2964 4.25 10.2964 7.375C10.2964 10.5 8.42139 10.5 9.04639 11.125C9.67139 11.75 11.8589 12.6875 11.8589 12.6875" stroke="white" stroke-width="1.25641" stroke-linecap="round"/>
<path fill-rule="evenodd" clip-rule="evenodd" d="M7.79688 14.25C11.2487 14.25 14.0469 11.4518 14.0469 8C14.0469 4.54822 11.2487 1.75 7.79688 1.75C4.3451 1.75 1.54688 4.54822 1.54688 8C1.54688 11.4518 4.3451 14.25 7.79688 14.25Z" stroke="white" stroke-width="1.25641"/>
</svg>
