<svg width="16" height="17" viewBox="0 0 16 17" fill="none" xmlns="http://www.w3.org/2000/svg">
<path d="M7.53125 2.875H8.46875C8.55208 2.875 8.59375 2.91667 8.59375 3V14C8.59375 14.0833 8.55208 14.125 8.46875 14.125H7.53125C7.44792 14.125 7.40625 14.0833 7.40625 14V3C7.40625 2.91667 7.44792 2.875 7.53125 2.875Z" fill="white"/>
<path d="M2.75 7.90625H13.25C13.3333 7.90625 13.375 7.94792 13.375 8.03125V8.96875C13.375 9.05208 13.3333 9.09375 13.25 9.09375H2.75C2.66667 9.09375 2.625 9.05208 2.625 8.96875V8.03125C2.625 7.94792 2.66667 7.90625 2.75 7.90625Z" fill="white"/>
</svg>
