<svg width="24" height="24" viewBox="0 0 24 24" fill="none" xmlns="http://www.w3.org/2000/svg">
<path d="M9.54404 4.36754L9.0697 4.20943L9.0697 4.20943L9.54404 4.36754ZM9.12851 5.61412L9.33383 6.07003L9.53358 5.98007L9.60286 5.77224L9.12851 5.61412ZM7.90686 6.32071L7.80662 6.81056L8.02161 6.85455L8.19954 6.7261L7.90686 6.32071ZM6.61791 6.05695L6.51767 6.54679L6.61791 6.05695ZM4.4849 7.01634L4.91792 7.26634L4.4849 7.01634ZM3.92642 7.98366L4.35943 8.23366L3.92642 7.98366ZM4.16207 10.3106L4.53617 9.97886H4.53617L4.16207 10.3106ZM5.03495 11.295L5.53247 11.3447L5.55425 11.127L5.40906 10.9632L5.03495 11.295ZM5.03495 12.705L5.40906 13.0368L5.55425 12.873L5.53247 12.6553L5.03495 12.705ZM4.16207 13.6894L3.78796 13.3577H3.78796L4.16207 13.6894ZM3.92642 16.0163L4.35943 15.7663L3.92642 16.0163ZM4.4849 16.9837L4.91791 16.7337L4.4849 16.9837ZM6.61791 17.9431L6.51767 17.4532H6.51767L6.61791 17.9431ZM7.90686 17.6793L8.19954 17.2739L8.02161 17.1454L7.80662 17.1894L7.90686 17.6793ZM9.12851 18.3859L9.60286 18.2278L9.53358 18.0199L9.33383 17.93L9.12851 18.3859ZM9.54404 19.6325L9.0697 19.7906L9.54404 19.6325ZM14.4557 19.6325L13.9814 19.4743L14.4557 19.6325ZM14.8713 18.3859L14.666 17.93L14.4662 18.0199L14.3969 18.2278L14.8713 18.3859ZM16.0929 17.6793L16.1932 17.1894L15.9782 17.1454L15.8002 17.2739L16.0929 17.6793ZM17.3819 17.9431L17.2816 18.4329H17.2816L17.3819 17.9431ZM19.5149 16.9837L19.0819 16.7337L19.5149 16.9837ZM20.0734 16.0163L20.5064 16.2663L20.0734 16.0163ZM19.8377 13.6894L19.4636 14.0211V14.0211L19.8377 13.6894ZM18.9648 12.705L18.4673 12.6553L18.4455 12.873L18.5907 13.0368L18.9648 12.705ZM18.9648 11.295L18.5907 10.9632L18.4455 11.127L18.4673 11.3447L18.9648 11.295ZM19.8377 10.3106L20.2118 10.6423L19.8377 10.3106ZM20.0734 7.98366L19.6403 8.23366L19.6403 8.23366L20.0734 7.98366ZM19.5149 7.01634L19.9479 6.76634V6.76634L19.5149 7.01634ZM17.3819 6.05695L17.2816 5.5671L17.3819 6.05695ZM16.0929 6.32071L15.8002 6.7261L15.9782 6.85455L16.1932 6.81056L16.0929 6.32071ZM14.8713 5.61412L14.3969 5.77224L14.4662 5.98007L14.666 6.07003L14.8713 5.61412ZM14.4557 4.36754L13.9814 4.52566V4.52566L14.4557 4.36754ZM10.0184 4.52566C10.2226 3.91315 10.7958 3.5 11.4414 3.5V2.5C10.3653 2.5 9.40998 3.18858 9.0697 4.20943L10.0184 4.52566ZM9.60286 5.77224L10.0184 4.52566L9.0697 4.20943L8.65417 5.45601L9.60286 5.77224ZM8.19954 6.7261C8.55278 6.47107 8.93255 6.25074 9.33383 6.07003L8.9232 5.15822C8.45982 5.3669 8.02158 5.6212 7.61419 5.91532L8.19954 6.7261ZM6.51767 6.54679L7.80662 6.81056L8.0071 5.83086L6.71815 5.5671L6.51767 6.54679ZM4.91792 7.26634C5.24074 6.7072 5.88514 6.41736 6.51767 6.54679L6.71815 5.5671C5.66393 5.35136 4.58993 5.83443 4.05189 6.76634L4.91792 7.26634ZM4.35943 8.23366L4.91792 7.26634L4.05189 6.76634L3.49341 7.73366L4.35943 8.23366ZM4.53617 9.97886C4.1078 9.49579 4.03661 8.79281 4.35943 8.23366L3.49341 7.73366C2.95537 8.66557 3.07402 9.83721 3.78796 10.6423L4.53617 9.97886ZM5.40906 10.9632L4.53617 9.97886L3.78796 10.6423L4.66085 11.6267L5.40906 10.9632ZM5.49989 12C5.49989 11.7787 5.51093 11.5601 5.53247 11.3447L4.53744 11.2452C4.5126 11.4936 4.49989 11.7454 4.49989 12H5.49989ZM5.53247 12.6553C5.51093 12.4399 5.49989 12.2213 5.49989 12H4.49989C4.49989 12.2546 4.5126 12.5064 4.53744 12.7548L5.53247 12.6553ZM4.53617 14.0211L5.40906 13.0368L4.66085 12.3733L3.78796 13.3577L4.53617 14.0211ZM4.35943 15.7663C4.03661 15.2072 4.1078 14.5042 4.53617 14.0211L3.78796 13.3577C3.07402 14.1628 2.95537 15.3344 3.49341 16.2663L4.35943 15.7663ZM4.91791 16.7337L4.35943 15.7663L3.49341 16.2663L4.05189 17.2337L4.91791 16.7337ZM6.51767 17.4532C5.88514 17.5826 5.24074 17.2928 4.91791 16.7337L4.05189 17.2337C4.58993 18.1656 5.66392 18.6486 6.71815 18.4329L6.51767 17.4532ZM7.80662 17.1894L6.51767 17.4532L6.71815 18.4329L8.0071 18.1691L7.80662 17.1894ZM9.33383 17.93C8.93255 17.7493 8.55278 17.5289 8.19954 17.2739L7.61419 18.0847C8.02158 18.3788 8.45982 18.6331 8.9232 18.8418L9.33383 17.93ZM10.0184 19.4743L9.60286 18.2278L8.65417 18.544L9.0697 19.7906L10.0184 19.4743ZM11.4414 20.5C10.7958 20.5 10.2226 20.0869 10.0184 19.4743L9.0697 19.7906C9.40999 20.8114 10.3653 21.5 11.4414 21.5V20.5ZM12.5584 20.5H11.4414V21.5H12.5584V20.5ZM13.9814 19.4743C13.7772 20.0869 13.204 20.5 12.5584 20.5V21.5C13.6344 21.5 14.5898 20.8114 14.9301 19.7906L13.9814 19.4743ZM14.3969 18.2278L13.9814 19.4743L14.9301 19.7906L15.3456 18.544L14.3969 18.2278ZM15.8002 17.2739C15.447 17.5289 15.0672 17.7493 14.666 17.93L15.0766 18.8418C15.54 18.6331 15.9782 18.3788 16.3856 18.0847L15.8002 17.2739ZM17.4821 17.4532L16.1932 17.1894L15.9927 18.1691L17.2816 18.4329L17.4821 17.4532ZM19.0819 16.7337C18.759 17.2928 18.1146 17.5826 17.4821 17.4532L17.2816 18.4329C18.3359 18.6486 19.4099 18.1656 19.9479 17.2337L19.0819 16.7337ZM19.6403 15.7663L19.0819 16.7337L19.9479 17.2337L20.5064 16.2663L19.6403 15.7663ZM19.4636 14.0211C19.892 14.5042 19.9632 15.2072 19.6403 15.7663L20.5064 16.2663C21.0444 15.3344 20.9258 14.1628 20.2118 13.3577L19.4636 14.0211ZM18.5907 13.0368L19.4636 14.0211L20.2118 13.3577L19.3389 12.3733L18.5907 13.0368ZM18.4999 12C18.4999 12.2213 18.4888 12.4399 18.4673 12.6553L19.4623 12.7548C19.4872 12.5064 19.4999 12.2546 19.4999 12H18.4999ZM18.4673 11.3447C18.4888 11.5601 18.4999 11.7787 18.4999 12H19.4999C19.4999 11.7454 19.4872 11.4936 19.4623 11.2452L18.4673 11.3447ZM19.4636 9.97886L18.5907 10.9632L19.3389 11.6267L20.2118 10.6423L19.4636 9.97886ZM19.6403 8.23366C19.9632 8.7928 19.892 9.49579 19.4636 9.97886L20.2118 10.6423C20.9258 9.83721 21.0444 8.66557 20.5064 7.73366L19.6403 8.23366ZM19.0819 7.26634L19.6403 8.23366L20.5064 7.73366L19.9479 6.76634L19.0819 7.26634ZM17.4821 6.54679C18.1146 6.41735 18.759 6.7072 19.0819 7.26634L19.9479 6.76634C19.4099 5.83443 18.3359 5.35136 17.2816 5.5671L17.4821 6.54679ZM16.1932 6.81056L17.4821 6.54679L17.2816 5.5671L15.9927 5.83086L16.1932 6.81056ZM14.666 6.07003C15.0672 6.25074 15.447 6.47107 15.8002 6.7261L16.3856 5.91532C15.9782 5.6212 15.54 5.3669 15.0766 5.15822L14.666 6.07003ZM13.9814 4.52566L14.3969 5.77224L15.3456 5.45601L14.9301 4.20943L13.9814 4.52566ZM12.5584 3.5C13.204 3.5 13.7772 3.91315 13.9814 4.52566L14.9301 4.20943C14.5898 3.18858 13.6344 2.5 12.5584 2.5V3.5ZM11.4414 3.5H12.5584V2.5H11.4414V3.5Z" fill="#4A5568"/>
<path fill-rule="evenodd" clip-rule="evenodd" d="M12 13C12.5523 13 13 12.5523 13 12C13 11.4477 12.5523 11 12 11C11.4477 11 11 11.4477 11 12C11 12.5523 11.4477 13 12 13Z" stroke="#4A5568"/>
</svg>
