<svg width="19" height="18" viewBox="0 0 19 18" fill="none" xmlns="http://www.w3.org/2000/svg">
<path d="M17.5855 6.6892L12.296 5.92045L9.93137 1.1267C9.86679 0.99545 9.76054 0.8892 9.62929 0.824617C9.30012 0.662117 8.90012 0.797534 8.73554 1.1267L6.37095 5.92045L1.08137 6.6892C0.935537 6.71003 0.802204 6.77878 0.70012 6.88295C0.576707 7.0098 0.508701 7.18045 0.511045 7.35741C0.513389 7.53437 0.585891 7.70317 0.71262 7.8267L4.5397 11.558L3.63554 16.8267C3.61433 16.9493 3.6279 17.0753 3.67469 17.1906C3.72148 17.3058 3.79962 17.4056 3.90026 17.4787C4.0009 17.5518 4.12001 17.5953 4.24408 17.6041C4.36815 17.613 4.49221 17.5869 4.6022 17.5288L9.33345 15.0413L14.0647 17.5288C14.1939 17.5975 14.3439 17.6205 14.4876 17.5955C14.8501 17.533 15.0939 17.1892 15.0314 16.8267L14.1272 11.558L17.9543 7.8267C18.0585 7.72462 18.1272 7.59128 18.148 7.44545C18.2043 7.08087 17.9501 6.74337 17.5855 6.6892Z" fill="#FADB14"/>
</svg>
