<svg width="16" height="15" viewBox="0 0 16 15" fill="none" xmlns="http://www.w3.org/2000/svg">
<path d="M15.3378 5.20743L10.8747 4.5588L8.8796 0.514069C8.82511 0.403327 8.73546 0.313678 8.62472 0.259186C8.34698 0.122077 8.00948 0.236335 7.87062 0.514069L5.8755 4.5588L1.41241 5.20743C1.28937 5.22501 1.17687 5.28301 1.09073 5.3709C0.986604 5.47793 0.929224 5.62192 0.931202 5.77123C0.933179 5.92054 0.994353 6.06296 1.10128 6.16719L4.33038 9.31544L3.56749 13.7609C3.5496 13.8644 3.56105 13.9707 3.60052 14.068C3.64 14.1652 3.70594 14.2494 3.79085 14.3111C3.87577 14.3728 3.97627 14.4094 4.08095 14.4169C4.18563 14.4243 4.29031 14.4023 4.38312 14.3533L8.37511 12.2545L12.3671 14.3533C12.4761 14.4113 12.6026 14.4307 12.7239 14.4096C13.0298 14.3568 13.2355 14.0668 13.1827 13.7609L12.4198 9.31544L15.6489 6.16719C15.7368 6.08106 15.7948 5.96856 15.8124 5.84551C15.8599 5.5379 15.6454 5.25313 15.3378 5.20743Z" fill="#DB6E34"/>
</svg>
