<svg width="22" height="18" viewBox="0 0 22 18" fill="none" xmlns="http://www.w3.org/2000/svg">
<path d="M0.463379 16.5C0.463379 16.7761 0.687237 17 0.963379 17C1.23952 17 1.46338 16.7761 1.46338 16.5H0.463379ZM12.4634 5.5C12.4634 5.77614 12.6872 6 12.9634 6C13.2395 6 13.4634 5.77614 13.4634 5.5H12.4634ZM15.0377 8.55409L14.5634 8.39598L14.5634 8.39598L15.0377 8.55409ZM14.905 8.95229L15.1103 9.40819L15.3101 9.31824L15.3793 9.1104L14.905 8.95229ZM14.226 9.34505L14.1258 9.83489L14.3408 9.87889L14.5187 9.75041L14.226 9.34505ZM13.814 9.26074L13.9143 8.77089H13.9143L13.814 9.26074ZM12.1699 10.0002L11.7369 9.75023L12.1699 10.0002ZM12.3516 11.7938L11.9775 12.1256L12.3516 11.7938ZM12.6308 12.1087L13.1283 12.1584L13.15 11.9407L13.0049 11.7769L12.6308 12.1087ZM12.6308 12.8917L13.0049 13.2235L13.1501 13.0597L13.1283 12.842L12.6308 12.8917ZM12.3516 13.2066L11.9775 12.8749L11.9775 12.8749L12.3516 13.2066ZM12.1699 15.0002L12.6029 14.7502L12.1699 15.0002ZM13.814 15.7397L13.9143 16.2296H13.9143L13.814 15.7397ZM14.2265 15.6553L14.5192 15.2499L14.3413 15.1215L14.1263 15.1655L14.2265 15.6553ZM14.905 16.0477L15.3793 15.8896L15.3101 15.6818L15.1103 15.5918L14.905 16.0477ZM17.9627 16.4459L18.437 16.604V16.604L17.9627 16.4459ZM18.0954 16.0477L17.8901 15.5918L17.6904 15.6818L17.6211 15.8896L18.0954 16.0477ZM18.7738 15.6554L18.8741 15.1655L18.6591 15.1215L18.4812 15.25L18.7738 15.6554ZM19.1861 15.7397L19.0858 16.2296L19.1861 15.7397ZM20.8302 15.0002L21.2632 15.2502L20.8302 15.0002ZM20.6486 13.2066L20.2744 13.5384V13.5384L20.6486 13.2066ZM20.3696 12.8921L19.8721 12.8422L19.8503 13.06L19.9955 13.2238L20.3696 12.8921ZM20.3696 12.1084L19.9955 11.7766L19.8503 11.9404L19.8721 12.1581L20.3696 12.1084ZM20.6486 11.7938L21.0227 12.1256L20.6486 11.7938ZM20.8302 10.0002L20.3972 10.2502L20.8302 10.0002ZM19.1861 9.26074L19.0858 8.77089L19.1861 9.26074ZM18.7743 9.345L18.4816 9.75037L18.6596 9.87884L18.8746 9.83484L18.7743 9.345ZM18.0954 8.95229L17.6211 9.1104L17.6904 9.31824L17.8901 9.40819L18.0954 8.95229ZM17.9627 8.55409L18.437 8.39598V8.39598L17.9627 8.55409ZM1.46338 16.5C1.46338 15.8773 1.66513 15.4326 1.99191 15.0681C2.33368 14.6869 2.82708 14.3772 3.43699 14.0722C3.73934 13.921 4.0584 13.7766 4.39233 13.6254C4.7231 13.4756 5.06767 13.3194 5.40574 13.1503C6.07984 12.8133 6.76076 12.4097 7.31693 11.8536L6.60983 11.1464C6.166 11.5903 5.59692 11.9367 4.95852 12.2559C4.64034 12.415 4.31303 12.5635 3.97974 12.7145C3.6496 12.864 3.31242 13.0165 2.98977 13.1778C2.34967 13.4978 1.71808 13.8756 1.24734 14.4006C0.761624 14.9424 0.463379 15.6227 0.463379 16.5H1.46338ZM7.31693 11.8536C7.47941 11.6911 7.6266 11.4852 7.6604 11.2244C7.69527 10.9555 7.59632 10.7336 7.49334 10.5734C7.39502 10.4204 7.25819 10.2714 7.13642 10.1402C7.00515 9.99888 6.86801 9.85453 6.72249 9.67991C6.16933 9.01612 5.46338 7.87838 5.46338 5.5H4.46338C4.46338 8.12162 5.25742 9.48388 5.95427 10.3201C6.12125 10.5205 6.28099 10.6886 6.40362 10.8207C6.53576 10.963 6.60986 11.0483 6.65216 11.1141C6.68981 11.1727 6.66118 11.1539 6.6687 11.0959C6.67516 11.046 6.69734 11.0589 6.60983 11.1464L7.31693 11.8536ZM5.46338 5.5C5.46338 3.88691 5.78814 2.76949 6.35371 2.06245C6.90222 1.37673 7.74025 1 8.96338 1V0C7.51951 0 6.35753 0.456773 5.5728 1.4378C4.80512 2.39751 4.46338 3.78009 4.46338 5.5H5.46338ZM8.96338 1C10.1865 1 11.0245 1.37673 11.5731 2.06245C12.1386 2.76949 12.4634 3.88691 12.4634 5.5H13.4634C13.4634 3.78009 13.1216 2.39751 12.354 1.4378C11.5692 0.456773 10.4072 0 8.96338 0V1ZM15.5121 8.71221C15.6539 8.28688 16.0519 8 16.5002 8V7C15.6215 7 14.8413 7.56231 14.5634 8.39598L15.5121 8.71221ZM15.3793 9.1104L15.5121 8.71221L14.5634 8.39598L14.4307 8.79418L15.3793 9.1104ZM14.5187 9.75041C14.703 9.61734 14.9011 9.50242 15.1103 9.40819L14.6997 8.49639C14.4283 8.61859 14.1718 8.76749 13.9333 8.93968L14.5187 9.75041ZM13.7138 9.75059L14.1258 9.83489L14.3263 8.8552L13.9143 8.77089L13.7138 9.75059ZM12.6029 10.2502C12.8271 9.86197 13.2746 9.66071 13.7138 9.75059L13.9143 8.77089C13.0534 8.59472 12.1763 8.9892 11.7369 9.75023L12.6029 10.2502ZM12.7257 11.4621C12.4282 11.1266 12.3788 10.6385 12.6029 10.2502L11.7369 9.75023C11.2975 10.5113 11.3944 11.4681 11.9775 12.1256L12.7257 11.4621ZM13.0049 11.7769L12.7257 11.4621L11.9775 12.1256L12.2567 12.4404L13.0049 11.7769ZM13.1113 12.5C13.1113 12.3845 13.1171 12.2706 13.1283 12.1584L12.1332 12.059C12.1187 12.2042 12.1113 12.3513 12.1113 12.5H13.1113ZM13.1283 12.842C13.1171 12.7297 13.1113 12.6156 13.1113 12.5H12.1113C12.1113 12.6489 12.1188 12.7962 12.1333 12.9415L13.1283 12.842ZM12.7257 13.5384L13.0049 13.2235L12.2567 12.56L11.9775 12.8749L12.7257 13.5384ZM12.6029 14.7502C12.3788 14.362 12.4282 13.8738 12.7257 13.5384L11.9775 12.8749C11.3944 13.5324 11.2975 14.4892 11.7369 15.2502L12.6029 14.7502ZM13.7138 15.2499C13.2746 15.3398 12.8271 15.1385 12.6029 14.7502L11.7369 15.2502C12.1763 16.0113 13.0534 16.4058 13.9143 16.2296L13.7138 15.2499ZM14.1263 15.1655L13.7138 15.2499L13.9143 16.2296L14.3268 16.1452L14.1263 15.1655ZM15.1103 15.5918C14.9013 15.4977 14.7033 15.3828 14.5192 15.2499L13.9339 16.0607C14.1722 16.2327 14.4286 16.3815 14.6997 16.5036L15.1103 15.5918ZM15.5121 16.2878L15.3793 15.8896L14.4307 16.2058L14.5634 16.604L15.5121 16.2878ZM16.5002 17C16.0519 17 15.6539 16.7131 15.5121 16.2878L14.5634 16.604C14.8413 17.4377 15.6215 18 16.5002 18V17ZM17.4883 16.2878C17.3466 16.7131 16.9485 17 16.5002 17V18C17.379 18 18.1591 17.4377 18.437 16.604L17.4883 16.2878ZM17.6211 15.8896L17.4883 16.2878L18.437 16.604L18.5698 16.2058L17.6211 15.8896ZM18.4812 15.25C18.2971 15.3829 18.0991 15.4977 17.8901 15.5918L18.3007 16.5036C18.5718 16.3815 18.8282 16.2328 19.0665 16.0608L18.4812 15.25ZM19.2863 15.2499L18.8741 15.1655L18.6736 16.1452L19.0858 16.2296L19.2863 15.2499ZM20.3972 14.7502C20.173 15.1385 19.7255 15.3398 19.2863 15.2499L19.0858 16.2296C19.9468 16.4058 20.8238 16.0113 21.2632 15.2502L20.3972 14.7502ZM20.2744 13.5384C20.5719 13.8738 20.6213 14.362 20.3972 14.7502L21.2632 15.2502C21.7026 14.4892 21.6057 13.5324 21.0227 12.8749L20.2744 13.5384ZM19.9955 13.2238L20.2744 13.5384L21.0227 12.8749L20.7437 12.5603L19.9955 13.2238ZM19.8891 12.5C19.8891 12.6157 19.8833 12.7298 19.8721 12.8422L20.8671 12.9419C20.8817 12.7964 20.8891 12.649 20.8891 12.5H19.8891ZM19.8721 12.1581C19.8833 12.2704 19.8891 12.3845 19.8891 12.5H20.8891C20.8891 12.3512 20.8817 12.2039 20.8671 12.0586L19.8721 12.1581ZM20.2745 11.4621L19.9955 11.7766L20.7437 12.4401L21.0227 12.1256L20.2745 11.4621ZM20.3972 10.2502C20.6213 10.6385 20.5719 11.1266 20.2745 11.4621L21.0227 12.1256C21.6057 11.4681 21.7026 10.5113 21.2632 9.75023L20.3972 10.2502ZM19.2863 9.75059C19.7255 9.66071 20.173 9.86197 20.3972 10.2502L21.2632 9.75023C20.8238 8.9892 19.9468 8.59472 19.0858 8.77089L19.2863 9.75059ZM18.8746 9.83484L19.2863 9.75059L19.0858 8.77089L18.6741 8.85515L18.8746 9.83484ZM17.8901 9.40819C18.0993 9.50241 18.2974 9.61731 18.4816 9.75037L19.067 8.93962C18.8286 8.76746 18.5721 8.61858 18.3007 8.49639L17.8901 9.40819ZM17.4883 8.71221L17.6211 9.1104L18.5698 8.79418L18.437 8.39598L17.4883 8.71221ZM16.5002 8C16.9485 8 17.3466 8.28688 17.4883 8.71221L18.437 8.39598C18.1591 7.56231 17.379 7 16.5002 7V8ZM16.4634 13.5C17.0157 13.5 17.4634 13.0523 17.4634 12.5H16.4634V13.5ZM17.4634 12.5C17.4634 11.9477 17.0157 11.5 16.4634 11.5V12.5H17.4634ZM16.4634 11.5C15.9111 11.5 15.4634 11.9477 15.4634 12.5H16.4634V11.5ZM15.4634 12.5C15.4634 13.0523 15.9111 13.5 16.4634 13.5V12.5H15.4634Z" fill="#4A5568"/>
</svg>
