<svg width="82" height="39" viewBox="0 0 82 39" fill="none" xmlns="http://www.w3.org/2000/svg">
<path d="M76.2086 3.26475C77.6083 3.26475 78.7658 4.43805 78.7658 5.85693V33.1431C78.7658 34.5619 77.6083 35.7352 76.2086 35.7352H5.79139C4.39166 35.7352 3.23419 34.5619 3.23419 33.1431V5.85693C3.23419 4.43805 4.39166 3.26475 5.79139 3.26475H76.2086ZM76.2086 1H5.79139C3.15343 1 1 3.18289 1 5.85693V33.1431C1 35.8171 3.15343 38 5.79139 38H76.2086C78.8466 38 81 35.8171 81 33.1431V5.85693C81 3.18289 78.8466 1 76.2086 1Z" fill="#DB6E34"/>
<path d="M27.4334 9.29496L20.3271 17.8901L13.3553 9.29496H9.18304V29.6777H11.7402V11.3687L19.1965 20.4004H21.5922L29.0215 11.3687V29.6777H31.5787V9.29496H27.4334Z" fill="#DB6E34"/>
<path d="M45.6837 9.29496V17.8082H32.8439V20.4004H45.6837V29.705H48.3755V9.29496H45.6837Z" fill="#DB6E34"/>
<path d="M68.6178 9.29496L61.5384 17.8901L54.5935 9.34953L54.5666 9.29496H50.3943V29.6777H52.9515V11.3687L60.3809 20.4004H62.8035L70.2328 11.3687V29.6777H72.79V9.29496H68.6178Z" fill="#DB6E34"/>
<path d="M76.2086 3.26475C77.6083 3.26475 78.7658 4.43805 78.7658 5.85693V33.1431C78.7658 34.5619 77.6083 35.7352 76.2086 35.7352H5.79139C4.39166 35.7352 3.23419 34.5619 3.23419 33.1431V5.85693C3.23419 4.43805 4.39166 3.26475 5.79139 3.26475H76.2086ZM76.2086 1H5.79139C3.15343 1 1 3.18289 1 5.85693V33.1431C1 35.8171 3.15343 38 5.79139 38H76.2086C78.8466 38 81 35.8171 81 33.1431V5.85693C81 3.18289 78.8466 1 76.2086 1Z" stroke="#DB6E34"/>
<path d="M27.4334 9.29496L20.3271 17.8901L13.3553 9.29496H9.18304V29.6777H11.7402V11.3687L19.1965 20.4004H21.5922L29.0215 11.3687V29.6777H31.5787V9.29496H27.4334Z" stroke="#DB6E34"/>
<path d="M45.6837 9.29496V17.8082H32.8439V20.4004H45.6837V29.705H48.3755V9.29496H45.6837Z" stroke="#DB6E34"/>
<path d="M68.6178 9.29496L61.5384 17.8901L54.5935 9.34953L54.5666 9.29496H50.3943V29.6777H52.9515V11.3687L60.3809 20.4004H62.8035L70.2328 11.3687V29.6777H72.79V9.29496H68.6178Z" stroke="#DB6E34"/>
</svg>
